<svg width="120" height="120" viewBox="0 0 120 120" fill="none" xmlns="http://www.w3.org/2000/svg">
  <defs>
    <linearGradient id="shieldGradient" x1="0%" y1="0%" x2="100%" y2="100%">
      <stop offset="0%" style="stop-color:#3b82f6;stop-opacity:1" />
      <stop offset="100%" style="stop-color:#1e40af;stop-opacity:1" />
    </linearGradient>
  </defs>
  
  <!-- Shield Background -->
  <path d="M60 10 L100 30 L100 70 Q100 95 60 110 Q20 95 20 70 L20 30 Z" fill="url(#shieldGradient)" opacity="0.95"/>
  
  <!-- Caduceus Staff -->
  <line x1="60" y1="35" x2="60" y2="90" stroke="white" stroke-width="3.5" stroke-linecap="round"/>
  <circle cx="60" cy="32" r="5" fill="white"/>
  
  <!-- Snakes -->
  <path d="M56 42 Q50 50 56 58 Q62 66 56 74 Q50 82 56 88" stroke="white" stroke-width="2.5" fill="none" stroke-linecap="round"/>
  <path d="M64 42 Q70 50 64 58 Q58 66 64 74 Q70 82 64 88" stroke="white" stroke-width="2.5" fill="none" stroke-linecap="round"/>
  
  <!-- Tech Wings - Left -->
  <circle cx="35" cy="60" r="3.5" fill="#60a5fa"/>
  <circle cx="27" cy="56" r="3.5" fill="#60a5fa"/>
  <circle cx="23" cy="64" r="3.5" fill="#60a5fa"/>
  <circle cx="30" cy="68" r="3.5" fill="#60a5fa"/>
  <line x1="35" y1="60" x2="27" y2="56" stroke="#60a5fa" stroke-width="2"/>
  <line x1="27" y1="56" x2="23" y2="64" stroke="#60a5fa" stroke-width="2"/>
  <line x1="35" y1="60" x2="30" y2="68" stroke="#60a5fa" stroke-width="2"/>
  
  <!-- Tech Wings - Right -->
  <circle cx="85" cy="60" r="3.5" fill="#60a5fa"/>
  <circle cx="93" cy="56" r="3.5" fill="#60a5fa"/>
  <circle cx="97" cy="64" r="3.5" fill="#60a5fa"/>
  <circle cx="90" cy="68" r="3.5" fill="#60a5fa"/>
  <line x1="85" y1="60" x2="93" y2="56" stroke="#60a5fa" stroke-width="2"/>
  <line x1="93" y1="56" x2="97" y2="64" stroke="#60a5fa" stroke-width="2"/>
  <line x1="85" y1="60" x2="90" y2="68" stroke="#60a5fa" stroke-width="2"/>
  
  <!-- Circuit Lines -->
  <path d="M45 35 Q40 32 35 28" stroke="#93c5fd" stroke-width="2" fill="none"/>
  <path d="M75 35 Q80 32 85 28" stroke="#93c5fd" stroke-width="2" fill="none"/>
  <circle cx="35" cy="28" r="2.5" fill="#93c5fd"/>
  <circle cx="85" cy="28" r="2.5" fill="#93c5fd"/>
  
  <!-- Additional Circuit Details -->
  <circle cx="40" cy="45" r="2" fill="#93c5fd" opacity="0.7"/>
  <circle cx="80" cy="45" r="2" fill="#93c5fd" opacity="0.7"/>
  <circle cx="38" cy="75" r="2" fill="#93c5fd" opacity="0.7"/>
  <circle cx="82" cy="75" r="2" fill="#93c5fd" opacity="0.7"/>
</svg>
